<svg width="35" height="35" viewBox="0 0 35 35" fill="none" xmlns="http://www.w3.org/2000/svg">
<rect width="35" height="35" rx="10" fill="#2C58F7"/>
<g clip-path="url(#clip0_43_51)">
<path d="M21.4391 5.98341C19.0699 5.43637 16.6059 5.43637 14.2367 5.98343C12.8684 5.14867 11.8228 4.7656 11.0628 4.60421C10.6496 4.51645 10.3222 4.49453 10.0759 4.50108C9.95293 4.50433 9.85119 4.51466 9.77016 4.52707C9.72968 4.53325 9.69452 4.53994 9.66459 4.54645C9.64962 4.54971 9.63597 4.55292 9.62367 4.55603L9.60618 4.56055L9.59819 4.56273L9.59437 4.56379L9.59069 4.56483C9.59067 4.56483 9.59069 4.56481 9.59069 4.56483C9.58986 4.5652 9.59395 4.57614 9.85697 5.49018L9.59069 4.56483C9.31536 4.64307 9.08894 4.83833 8.97218 5.09819C8.64619 5.82362 8.46816 6.60609 8.44834 7.40033C8.43361 7.99057 8.50648 8.5786 8.66368 9.14568C8.25057 9.64298 7.91398 10.1998 7.66597 10.7982C7.34045 11.5836 7.17392 12.4251 7.17594 13.2745C7.17619 16.2657 8.06412 18.2768 9.57731 19.5691C10.6375 20.4745 11.9263 20.9563 13.2169 21.2322C13.0038 21.8206 12.9484 22.4431 12.9916 23.0775V24.23C12.2019 24.3951 11.6566 24.3429 11.2679 24.2153C10.7794 24.055 10.4049 23.7329 10.0477 23.27C9.8668 23.0357 9.70012 22.7783 9.52509 22.4966L9.41399 22.3169C9.27692 22.0943 9.12899 21.8545 8.9797 21.6356C8.60981 21.0935 8.06409 20.416 7.17976 20.1852L6.24226 19.9406L5.74998 21.804L6.68749 22.0487C6.8415 22.0889 7.04424 22.2317 7.37524 22.7168C7.49687 22.895 7.61289 23.0833 7.74537 23.2981C7.78697 23.3655 7.8303 23.4358 7.87583 23.5092C8.05779 23.8019 8.26647 24.1277 8.50962 24.4427C9.00052 25.0787 9.66889 25.7196 10.6604 26.0448C11.3416 26.2683 12.1116 26.3219 12.9916 26.1876V29.7867C12.9916 30.3186 13.4255 30.75 13.9609 30.75H21.715C22.2504 30.75 22.6843 30.3186 22.6843 29.7867V22.9232C22.6843 22.3147 22.6577 21.7585 22.4854 21.2395C23.7694 20.9702 25.048 20.488 26.1012 19.5818C27.6139 18.2805 28.5 16.2512 28.5 13.242V13.2389C28.4951 11.7385 27.9653 10.2932 27.0122 9.14572C27.1694 8.57862 27.2423 7.99059 27.2275 7.40033C27.2078 6.60609 27.0298 5.82362 26.7037 5.09819C26.5868 4.83825 26.3604 4.64297 26.0849 4.56475L25.8188 5.49099C26.0849 4.56475 26.0822 4.56398 26.0813 4.56371L26.0776 4.56265L26.0694 4.5605L26.052 4.55597C26.0398 4.55289 26.026 4.54967 26.0111 4.54641C25.9812 4.5399 25.9461 4.53323 25.9056 4.52705C25.8246 4.51466 25.7228 4.50433 25.5999 4.50108C25.3535 4.49453 25.0259 4.51645 24.6126 4.60419C23.8525 4.7656 22.8071 5.14865 21.4391 5.98341Z" fill="white"/>
</g>
<defs>
<clipPath id="clip0_43_51">
<rect width="26.25" height="26.25" fill="white" transform="translate(4.375 4.375)"/>
</clipPath>
</defs>
</svg>
