<svg width="35" height="35" viewBox="0 0 35 35" fill="none" xmlns="http://www.w3.org/2000/svg">
<rect width="35" height="35" rx="10" fill="#2C58F7"/>
<g clip-path="url(#clip0_43_52)">
<path d="M10.4853 12.791H5.21559C4.98171 12.791 4.79221 12.9806 4.79221 13.2144V30.1438C4.79221 30.3777 4.98171 30.5672 5.21559 30.5672H10.4853C10.7192 30.5672 10.9087 30.3777 10.9087 30.1438V13.2144C10.9087 12.9806 10.7192 12.791 10.4853 12.791Z" fill="white"/>
<path d="M7.85236 4.375C5.93493 4.375 4.375 5.93323 4.375 7.84855C4.375 9.76472 5.93493 11.3235 7.85236 11.3235C9.76827 11.3235 11.3269 9.76463 11.3269 7.84855C11.327 5.93323 9.76827 4.375 7.85236 4.375Z" fill="white"/>
<path d="M23.8892 12.3702C21.7727 12.3702 20.2082 13.2801 19.2592 14.3139V13.2144C19.2592 12.9806 19.0697 12.791 18.8358 12.791H13.7891C13.5552 12.791 13.3657 12.9806 13.3657 13.2144V30.1438C13.3657 30.3777 13.5552 30.5672 13.7891 30.5672H19.0473C19.2812 30.5672 19.4707 30.3777 19.4707 30.1438V21.7677C19.4707 18.9451 20.2374 17.8455 22.2049 17.8455C24.3478 17.8455 24.5181 19.6083 24.5181 21.9129V30.1439C24.5181 30.3777 24.7076 30.5672 24.9415 30.5672H30.2016C30.4355 30.5672 30.625 30.3777 30.625 30.1439V20.8578C30.625 16.6608 29.8247 12.3702 23.8892 12.3702Z" fill="white"/>
</g>
<defs>
<clipPath id="clip0_43_52">
<rect width="26.25" height="26.25" fill="white" transform="translate(4.375 4.375)"/>
</clipPath>
</defs>
</svg>
