<svg width="117" height="36" viewBox="0 0 117 36" fill="none" xmlns="http://www.w3.org/2000/svg">
<path d="M38.26 11H41.5V25H38.26V11ZM31.9 25H28.66V11H31.9V25ZM38.5 19.26H31.66V16.52H38.5V19.26ZM42.9723 25L49.2123 11H52.4123L58.6723 25H55.2723L50.1523 12.64H51.4323L46.2923 25H42.9723ZM46.0923 22L46.9523 19.54H54.1523L55.0323 22H46.0923ZM60.1248 25V11H66.1848C67.4382 11 68.5182 11.2067 69.4248 11.62C70.3315 12.02 71.0315 12.6 71.5248 13.36C72.0182 14.12 72.2648 15.0267 72.2648 16.08C72.2648 17.12 72.0182 18.02 71.5248 18.78C71.0315 19.54 70.3315 20.1267 69.4248 20.54C68.5182 20.94 67.4382 21.14 66.1848 21.14H61.9248L63.3648 19.68V25H60.1248ZM63.3648 20.04L61.9248 18.5H66.0048C67.0048 18.5 67.7515 18.2867 68.2448 17.86C68.7382 17.4333 68.9848 16.84 68.9848 16.08C68.9848 15.3067 68.7382 14.7067 68.2448 14.28C67.7515 13.8533 67.0048 13.64 66.0048 13.64H61.9248L63.3648 12.1V20.04ZM77.558 16.64H84.298V19.16H77.558V16.64ZM77.798 22.4H85.418V25H74.578V11H85.158V13.6H77.798V22.4ZM94.2159 25.24C92.2293 25.24 90.6759 24.6867 89.5559 23.58C88.4359 22.4733 87.8759 20.8933 87.8759 18.84V11H91.1159V18.72C91.1159 20.0533 91.3893 21.0133 91.9359 21.6C92.4826 22.1867 93.2493 22.48 94.2359 22.48C95.2226 22.48 95.9893 22.1867 96.5359 21.6C97.0826 21.0133 97.3559 20.0533 97.3559 18.72V11H100.556V18.84C100.556 20.8933 99.9959 22.4733 98.8759 23.58C97.7559 24.6867 96.2026 25.24 94.2159 25.24ZM101.962 25L107.982 16.7V19.06L102.222 11H105.902L109.882 16.62L108.342 16.64L112.262 11H115.782L110.062 18.92V16.6L116.122 25H112.382L108.262 19.06H109.742L105.682 25H101.962Z" fill="white"/>
<g clip-path="url(#clip0_28_12)">
<path d="M18.2871 13.369C14.3847 14.563 10.5747 15.8662 6.53425 17.1034C5.28265 14.5714 3.85465 11.7586 2.48425 8.98662C2.25625 8.70342 1.86385 8.65182 1.61065 8.83302C1.41265 8.97462 1.32265 9.24462 1.38745 9.50742C2.98345 12.127 4.57945 14.7454 6.17545 17.365C5.92225 17.5186 5.71945 17.6398 5.48425 17.7826C3.71665 15.0166 1.98265 12.301 0.247452 9.58542C-0.196548 8.89062 0.00865231 8.28702 0.455052 7.66662C3.33625 3.66942 7.27105 1.35702 12.0447 0.376621C12.6315 0.255421 13.2291 0.181021 13.8219 0.0862206C15.4083 -0.169379 15.9003 0.0886207 16.5135 1.60662C17.5899 4.27062 18.6375 6.94662 19.6995 9.61662C19.9311 10.1974 20.1759 10.7722 20.4831 11.515C21.0675 10.8886 21.5775 10.3822 22.0395 9.83502C22.5843 9.18942 23.2263 8.85462 24.0399 9.20742C24.8931 9.57822 25.3659 10.3522 25.1259 11.2006C24.8991 12.0022 24.4563 12.8938 23.8275 13.393C22.9359 14.1022 21.8187 14.5702 20.7411 14.9986C17.0175 16.4794 13.2519 17.8558 9.53785 19.3582C7.29745 20.2654 5.24665 21.5158 3.57985 23.5294C3.24145 22.0858 3.48985 20.887 4.38025 19.915C4.94425 19.2994 5.63065 18.6958 6.38425 18.3718C9.30985 17.1142 12.2859 15.9742 15.2415 14.7838C16.2759 14.3674 17.3031 13.9306 18.3339 13.5034C18.3735 13.4878 18.3903 13.4422 18.3747 13.4074C18.3615 13.3738 18.3231 13.357 18.2871 13.369Z" fill="white"/>
<path d="M23.7627 28.3126C24.8019 29.2918 25.7883 30.2206 26.8299 31.201C25.0359 33.4846 22.7535 34.9114 19.9803 35.4886C12.5007 37.045 5.79386 31.7218 5.52266 24.0226C5.50946 23.6578 5.76626 23.1334 6.06506 22.9318C7.41626 22.0174 8.82626 21.193 10.3443 20.419C9.63386 22.4974 9.46706 24.5086 10.2447 26.5282C11.0343 28.579 12.4527 30.043 14.4531 30.9238C17.6367 32.3266 21.0603 31.3726 23.7627 28.3126Z" fill="white"/>
<path d="M25.007 14.4766C25.6514 15.0898 26.3774 15.7786 27.1718 16.5346C25.9598 17.5702 24.9134 18.4642 23.9498 19.2874C22.7606 18.337 21.6422 17.4442 20.5838 16.5994C21.9314 15.9526 23.3666 15.2638 25.007 14.4766Z" fill="white"/>
</g>
<defs>
<clipPath id="clip0_28_12">
<rect width="27" height="36" fill="white"/>
</clipPath>
</defs>
</svg>
