<svg width="34" height="34" viewBox="0 0 34 34" fill="none" xmlns="http://www.w3.org/2000/svg">
<path d="M31.9815 2.8306H11.7903C10.6774 2.8306 9.77185 3.73612 9.77185 4.84908V7.77536C9.77185 8.88832 10.6774 9.79384 11.7903 9.79384H31.9815C33.0945 9.79384 34 8.88832 34 7.77536V4.84908C34 3.73612 33.0945 2.8306 31.9815 2.8306Z" fill="white"/>
<path d="M31.9815 13.5184H11.7903C10.6774 13.5184 9.77185 14.4239 9.77185 15.5369V18.4632C9.77185 19.5761 10.6774 20.4816 11.7903 20.4816H31.9815C33.0945 20.4816 34 19.5761 34 18.4632V15.5369C34 14.4239 33.0945 13.5184 31.9815 13.5184Z" fill="white"/>
<path d="M31.9815 24.2062H11.7903C10.6774 24.2062 9.77185 25.1117 9.77185 26.2248V29.1509C9.77185 30.2639 10.6774 31.1694 11.7903 31.1694H31.9815C33.0945 31.1694 34 30.2639 34 29.1509V26.2248C34 25.1117 33.0945 24.2062 31.9815 24.2062Z" fill="white"/>
<path d="M5.26199 2.8306H2.01848C0.905522 2.8306 0 3.73612 0 4.84908V7.77536C0 8.88832 0.905522 9.79384 2.01848 9.79384H5.26199C6.37494 9.79384 7.28046 8.88832 7.28046 7.77536V4.84908C7.28046 3.73612 6.37494 2.8306 5.26199 2.8306Z" fill="white"/>
<path d="M5.26199 13.5184H2.01848C0.905522 13.5184 0 14.4239 0 15.5369V18.4632C0 19.5761 0.905522 20.4816 2.01848 20.4816H5.26199C6.37494 20.4816 7.28046 19.5761 7.28046 18.4632V15.5369C7.28046 14.4239 6.37494 13.5184 5.26199 13.5184Z" fill="white"/>
<path d="M5.26199 24.2062H2.01848C0.905522 24.2062 0 25.1117 0 26.2248V29.1509C0 30.2639 0.905522 31.1694 2.01848 31.1694H5.26199C6.37494 31.1694 7.28046 30.2639 7.28046 29.1509V26.2248C7.28046 25.1117 6.37494 24.2062 5.26199 24.2062Z" fill="white"/>
</svg>
