<svg width="35" height="35" viewBox="0 0 35 35" fill="none" xmlns="http://www.w3.org/2000/svg">
<rect width="35" height="35" rx="10" fill="#2C58F7"/>
<g clip-path="url(#clip0_43_53)">
<path d="M16.8635 4.39042C9.93092 4.72052 4.46012 10.494 4.48115 17.4345C4.48756 19.5484 4.99789 21.5436 5.89813 23.3065L4.51593 30.0159C4.44116 30.3788 4.76849 30.6966 5.12903 30.6112L11.7034 29.0536C13.3925 29.895 15.2896 30.381 17.2975 30.4116C24.3833 30.5198 30.2916 24.8935 30.5124 17.8104C30.7492 10.2177 24.4827 4.02756 16.8635 4.39042ZM24.7082 24.6024C22.7828 26.5277 20.2229 27.5881 17.5 27.5881C15.9057 27.5881 14.3793 27.2303 12.9631 26.5249L12.0475 26.0688L8.01673 27.0238L8.86518 22.9051L8.41412 22.0218C7.67892 20.5819 7.30614 19.025 7.30614 17.3942C7.30614 14.6713 8.36647 12.1114 10.2918 10.186C12.2 8.27781 14.8017 7.20021 17.5002 7.20021C20.2231 7.20028 22.7829 8.26061 24.7082 10.1859C26.6336 12.1113 27.6939 14.6711 27.694 17.394C27.6939 20.0926 26.6163 22.6943 24.7082 24.6024Z" fill="white"/>
<path d="M23.8183 20.2173L21.2966 19.4932C20.965 19.398 20.608 19.4921 20.3664 19.7382L19.7498 20.3665C19.4897 20.6315 19.0952 20.7166 18.751 20.5773C17.5581 20.0946 15.0487 17.8634 14.4079 16.7474C14.223 16.4255 14.2536 16.023 14.4806 15.7292L15.019 15.0327C15.2299 14.7598 15.2744 14.3933 15.1349 14.0779L14.0739 11.6783C13.8198 11.1035 13.0854 10.9362 12.6055 11.342C11.9017 11.9373 11.0667 12.8419 10.9651 13.844C10.7862 15.6108 11.5439 17.8381 14.4093 20.5125C17.7196 23.6021 20.3705 24.0103 22.0965 23.5922C23.0755 23.3551 23.8578 22.4045 24.3516 21.6262C24.6882 21.0955 24.4224 20.3908 23.8183 20.2173Z" fill="white"/>
</g>
<defs>
<clipPath id="clip0_43_53">
<rect width="26.25" height="26.25" fill="white" transform="translate(4.375 4.375)"/>
</clipPath>
</defs>
</svg>
